# xmcd
#
# Track frame offsets: 
#        150
#        5182
#        11399
#        17576
#        22819
#        26948
#        31112
#        37519
#        43494
#        50127
#        56947
#        63234
#        68266
#        74425
#        81042
#        87449
#        93515
#        98678
#        104098
#        109424
#        113876
#        119053
#        124595
#        130794
#        137067
#        143077
#        149486
#        154975
#        159761
#        165647
#        171697
#        177944
#        183417
#        187062
#        190887
#        197289
#        203402
#        209727
#        214699
#        221042
#        227584
#        233909
#        238542
#        244608
#        248691
#        254301
#        261719
#        268005
#        270522
#        276706
#        280758
#        286179
#        292268
#        298736
#        303448
#
# Disc length: 4135 seconds
#
# Revision: 1
# Processed by: cddbd v1.5.2PL0 Copyright (c) Steve Scherf et al.
# Submitted via: ExactAudioCopy v0.99pb4
#
DISCID=4a102537
DTITLE=Various Artist - 555CD55 Compilation
DYEAR=2003
DGENRE=Indie
TTITLE0=Bit Shifter - Double Density
TTITLE1=Cannonball Jane - Such Is The Score
TTITLE2=The Needles - Mirror Hero
TTITLE3=Pisstank - One Moment (Motherfucker)
TTITLE4=Isan - The Summer Is Ended and We Are Not Yet Save
TTITLE5=Huon - Scene Report
TTITLE6=Saucer - I Miss You So
TTITLE7=Printed Circuit - The Jackson 555
TTITLE8=Bears and Satellite - Sandal Dance
TTITLE9=The Cannanes - No Worries
TTITLE10=6955 - 69555
TTITLE11=The Bright Lights - This Geograpy's Got Me Down
TTITLE12=David Figurine - Rebuild Love (minimix)
TTITLE13=Ashtray Boy - LAX
TTITLE14=Kid606 - Hey Stew, Is The 7" Format Dead Yet???
TTITLE15=Stick Insect - Morning Coffee
TTITLE16=Kanda - My Astoria
TTITLE17=The Loveletter Band - It's True
TTITLE18=Costar - These Stars Are Not For You-Paradise Rmx
TTITLE19=A Few Bears In A Hut In The Woods Somewhere - Spiegeitent
TTITLE20=MMFAN316 - Command and M
TTITLE21=Pop Threat - hit. it.!
TTITLE22=Random Number - Arise! The Proletariat
TTITLE23=Minimum Chips - Eating Out
TTITLE24=New Waver - Give Me The Prozac
TTITLE25=Caravanette - FJ in SF
TTITLE26=The Lucksmiths - Yunta Hair
TTITLE27=Lesser - Supertramp
TTITLE28=Mrs. Pilgrimm - Alone Queen
TTITLE29=Cathode - Yielder
TTITLE30=The Units - 12no
TTITLE31=Seaworthy - Never Quite Like Yesterday
TTITLE32=Jean Beach - Milbenkotmix
TTITLE33=N-16 - Fin
TTITLE34=Park - We'll All Come Around
TTITLE35=Hydroplane - Museum Station
TTITLE36=Moblin - 5 OK
TTITLE37=Vross - Tuney Tune
TTITLE38=Lucky Dragons - Long Lost Favorite Mix Tape
TTITLE39=Gravenhurst - Long Way Home
TTITLE40=Disastronaut - (Untitled)
TTITLE41=Robert Scott - Twin Creeks
TTITLE42=Team Forest - Particular Weakness
TTITLE43=The Crabapples - You'll See Me
TTITLE44=FCB - Monaco
TTITLE45=Lunchbox - My Disaster 
TTITLE46=Joan of Ass - Bodybuilding
TTITLE47=Fog and Ocean - No More Telephone
TTITLE48=Other Peoples Children - Pyjama Boy
TTITLE49=Making Hey! - (Untitled)
TTITLE50=Origami - Nancy Drew
TTITLE51=The Grey Tapes - When You Laugh
TTITLE52=Guy Blackman In Japan - There Without Me
TTITLE53=The Museum Exhibit - Just Like Clockwork
TTITLE54=Shemotions - Follow
EXTD=
EXTT0=
EXTT1=
EXTT2=
EXTT3=
EXTT4=
EXTT5=
EXTT6=
EXTT7=
EXTT8=
EXTT9=
EXTT10=
EXTT11=
EXTT12=
EXTT13=
EXTT14=
EXTT15=
EXTT16=
EXTT17=
EXTT18=
EXTT19=
EXTT20=
EXTT21=
EXTT22=
EXTT23=
EXTT24=
EXTT25=
EXTT26=
EXTT27=
EXTT28=
EXTT29=
EXTT30=
EXTT31=
EXTT32=
EXTT33=
EXTT34=
EXTT35=
EXTT36=
EXTT37=
EXTT38=
EXTT39=
EXTT40=
EXTT41=
EXTT42=
EXTT43=
EXTT44=
EXTT45=
EXTT46=
EXTT47=
EXTT48=
EXTT49=
EXTT50=
EXTT51=
EXTT52=
EXTT53=
EXTT54=
PLAYORDER=
